<?xml version="1.0" encoding="UTF-8"?>
<svg width="80" height="80" viewBox="0 0 80 80" fill="none" xmlns="http://www.w3.org/2000/svg">
    <path d="M40 70C56.5685 70 70 56.5685 70 40C70 23.4315 56.5685 10 40 10C23.4315 10 10 23.4315 10 40C10 56.5685 23.4315 70 40 70Z" fill="#FEE2E2" stroke="#EF4444" stroke-width="2"/>
    <path d="M40 25C45.5228 25 50 29.4772 50 35C50 44 35 55 35 55C35 55 20 44 20 35C20 29.4772 24.4772 25 30 25C33.3137 25 36.2176 26.7361 38 29.2721C39.7824 26.7361 42.6863 25 46 25H40Z" fill="#EF4444"/>
</svg> 